<svg width="52" height="52" viewBox="0 0 52 52" fill="none" xmlns="http://www.w3.org/2000/svg">
<g clip-path="url(#clip0_22_123)">
<path fill-rule="evenodd" clip-rule="evenodd" d="M26 47.953L17.9656 52L13.7279 43.7603L4.96559 42.0689L6.14331 32.7839L0 26L6.14331 19.2161L4.96559 9.93109L13.7279 8.23966L17.9656 0L26 4.04696L34.0344 0L38.2721 8.23966L47.0344 9.93109L45.8567 19.2161L52 26L45.8567 32.7839L47.0344 42.0689L38.2721 43.7603L34.0344 52L26 47.953Z" fill="#4285F4"/>
<path fill-rule="evenodd" clip-rule="evenodd" d="M21.5134 28.8945L17.3672 24.7485L13.7109 28.4048L17.8571 32.551L17.8507 32.5573L21.507 36.2135L21.5134 36.2072L21.5197 36.2135L25.1759 32.5573L25.1696 32.551L38.2204 19.5L34.5642 15.8438L21.5134 28.8945Z" fill="white"/>
</g>
<defs>
<clipPath id="clip0_22_123">
<rect width="52" height="52" fill="white"/>
</clipPath>
</defs>
</svg>
